<svg width="22" height="24" viewBox="0 0 22 24" fill="none" xmlns="http://www.w3.org/2000/svg">
<mask id="path-1-inside-1_252_13566" fill="white">
<path fill-rule="evenodd" clip-rule="evenodd" d="M2.25342 18.0787L15.9426 22.6217L9.86173 13.7464L2.2953 17.9292L2.25342 18.0787ZM21.1556 24V7.50301L12.9577 12.0349L21.1556 24ZM17.4182 5.62434L6.70983 2.16661L3.60246 13.2618L17.4182 5.62434ZM3.32041 1.07216L0 0V12.928L3.32041 1.07216Z"/>
</mask>
<path fill-rule="evenodd" clip-rule="evenodd" d="M2.25342 18.0787L15.9426 22.6217L9.86173 13.7464L2.2953 17.9292L2.25342 18.0787ZM21.1556 24V7.50301L12.9577 12.0349L21.1556 24ZM17.4182 5.62434L6.70983 2.16661L3.60246 13.2618L17.4182 5.62434ZM3.32041 1.07216L0 0V12.928L3.32041 1.07216Z" fill="#FFE0B2"/>
<path d="M15.9426 22.6217L15.9034 22.7398L16.254 22.8562L16.0452 22.5514L15.9426 22.6217ZM2.25342 18.0787L2.13363 18.0452L2.10164 18.1594L2.21424 18.1968L2.25342 18.0787ZM9.86173 13.7464L9.96435 13.6761L9.90047 13.5828L9.80155 13.6375L9.86173 13.7464ZM2.2953 17.9292L2.23511 17.8203L2.18955 17.8455L2.17551 17.8956L2.2953 17.9292ZM21.1556 7.50301H21.28V7.2921L21.0954 7.39413L21.1556 7.50301ZM21.1556 24L21.0529 24.0703L21.28 24.4017V24H21.1556ZM12.9577 12.0349L12.8975 11.926L12.7777 11.9922L12.8551 12.1052L12.9577 12.0349ZM6.70983 2.16661L6.74805 2.04823L6.62493 2.00847L6.59004 2.13306L6.70983 2.16661ZM17.4182 5.62434L17.4784 5.73321L17.7298 5.59423L17.4564 5.50596L17.4182 5.62434ZM3.60246 13.2618L3.48267 13.2283L3.40251 13.5145L3.66264 13.3707L3.60246 13.2618ZM0 0L0.0382249 -0.11838L-0.124398 -0.170891V0H0ZM3.32041 1.07216L3.4402 1.10571L3.47245 0.990535L3.35863 0.953782L3.32041 1.07216ZM0 12.928H-0.124398L0.119789 12.9616L0 12.928ZM15.9818 22.5037L2.29261 17.9606L2.21424 18.1968L15.9034 22.7398L15.9818 22.5037ZM16.0452 22.5514L9.96435 13.6761L9.75911 13.8167L15.84 22.692L16.0452 22.5514ZM9.80155 13.6375L2.23511 17.8203L2.35548 18.0381L9.92192 13.8552L9.80155 13.6375ZM2.17551 17.8956L2.13363 18.0452L2.37321 18.1123L2.41509 17.9627L2.17551 17.8956ZM21.0312 7.50301V24H21.28V7.50301H21.0312ZM21.0954 7.39413L12.8975 11.926L13.0179 12.1437L21.2157 7.61188L21.0954 7.39413ZM12.8551 12.1052L21.0529 24.0703L21.2582 23.9297L13.0604 11.9646L12.8551 12.1052ZM6.6716 2.28499L17.3799 5.74272L17.4564 5.50596L6.74805 2.04823L6.6716 2.28499ZM6.59004 2.13306L3.48267 13.2283L3.72224 13.2954L6.82962 2.20016L6.59004 2.13306ZM3.66264 13.3707L17.4784 5.73321L17.358 5.51547L3.54227 13.153L3.66264 13.3707ZM-0.0382249 0.11838L3.28218 1.19054L3.35863 0.953782L0.0382249 -0.11838L-0.0382249 0.11838ZM0.124398 12.928V0H-0.124398V12.928H0.124398ZM0.119789 12.9616L3.4402 1.10571L3.20062 1.03861L-0.119789 12.8945L0.119789 12.9616Z" fill="#FFE0B2" mask="url(#path-1-inside-1_252_13566)"/>
</svg>
